<svg xmlns="http://www.w3.org/2000/svg" viewBox="0 0 200 120" width="200" height="120" preserveAspectRatio="none">
  <!--
    투명 배경 앤틱 골드 패널 프레임 에셋
    (기존 frame-panel-antique.svg에서 양피지 배경만 제거하여, 맵과 밀착 렌더링되도록 함)
  -->
  <defs>
    <!-- 금색 그라디언트 (테두리용) -->
    <linearGradient id="goldH" x1="0" y1="0" x2="1" y2="0">
      <stop offset="0%"   stop-color="#8a6020"/>
      <stop offset="30%"  stop-color="#e8c97a"/>
      <stop offset="70%"  stop-color="#e8c97a"/>
      <stop offset="100%" stop-color="#8a6020"/>
    </linearGradient>
    <linearGradient id="goldV" x1="0" y1="0" x2="0" y2="1">
      <stop offset="0%"   stop-color="#8a6020"/>
      <stop offset="30%"  stop-color="#e8c97a"/>
      <stop offset="70%"  stop-color="#e8c97a"/>
      <stop offset="100%" stop-color="#8a6020"/>
    </linearGradient>

    <!-- 뾰족별 심볼 (재사용) -->
    <symbol id="star" viewBox="0 0 24 24" width="24" height="24">
      <polygon points="12,0 14.2,9.8 24,12 14.2,14.2 12,24 9.8,14.2 0,12 9.8,9.8" fill="#b07d28" />
      <polygon points="12,4 13.8,10.2 20,12 13.8,13.8 12,20 10.2,13.8 4,12 10.2,10.2" fill="#e8c97a" />
      <polygon points="12,7 13,11 17,12 13,13 12,17 11,13 7,12 11,11" fill="#c9922a" />
      <circle cx="12" cy="12" r="2.5" fill="#3e2208"/>
      <circle cx="11" cy="11" r="0.8" fill="rgba(255,230,150,0.55)"/>
    </symbol>
  </defs>

  <!-- 배경을 투명하게 비웁니다 -->
  
  <!-- 외곽 짙은 금 테두리 (외선) -->
  <rect x="1"  y="1"  width="198" height="118" fill="none" stroke="#8a6020" stroke-width="1.5"/>

  <!-- 내부 밝은 금 테두리 (내선 — 이중 액자 효과) -->
  <rect x="4"  y="4"  width="192" height="112" fill="none" stroke="rgba(232,201,122,0.7)" stroke-width="1"/>

  <!-- 수평 테두리에 골드 그라디언트 오버레이 -->
  <rect x="1"  y="1"  width="198" height="2"   fill="url(#goldH)" opacity="0.8"/>
  <rect x="1"  y="117" width="198" height="2"  fill="url(#goldH)" opacity="0.8"/>

  <!-- 수직 테두리에 골드 그라디언트 오버레이 -->
  <rect x="1"  y="1"  width="2"   height="118" fill="url(#goldV)" opacity="0.8"/>
  <rect x="197" y="1" width="2"   height="118" fill="url(#goldV)" opacity="0.8"/>

  <!-- 4모서리 뾰족별 장식 -->
  <use href="#star" x="-12" y="-12"/>
  <use href="#star" x="188" y="-12"/>
  <use href="#star" x="-12" y="108"/>
  <use href="#star" x="188" y="108"/>
</svg>
